# xmcd CD database file
#
# Track frame offsets:
#	150
#	19922
#	42940
#	63525
#	86905
#	109697
#	129560
#	147037
#	166942
#	183867
#	206090
#	226895
#	251200
#	269155
#	282840
#	304642
#	322722
#	336335
#
# Disc length: 4732 seconds
#
# Revision: 1
# Processed by: cddbd v1.5.2PL0 Copyright (c) Steve Scherf et al.
# Submitted via: CDex 1.70beta2
#
DISCID=08127a12
DTITLE=村松邦男 - Do You Believe In Magic - Anthology 1975-1986
DYEAR=2004
DGENRE=Pop
TTITLE0=ためいきばかり
TTITLE1=The Party
TTITLE2=僕のガールズ
TTITLE3=フェアリー
TTITLE4=ジェラシー
TTITLE5=うたたね
TTITLE6=SUNRISE TWIST
TTITLE7=愛してルミナス
TTITLE8=CANDY HEART
TTITLE9=雨糸
TTITLE10=RAINY DAY
TTITLE11=冬の陽だまり
TTITLE12=X'mas Rock
TTITLE13=I Saw The Light
TTITLE14=柊 [45rpm]
TTITLE15=Band (1973-1976)
TTITLE16=DO YOU BELIEVE IN MAGIC
TTITLE17=SNOWMAN
EXTD=YEAR: 2004
EXTT0=
EXTT1=
EXTT2=
EXTT3=
EXTT4=
EXTT5=
EXTT6=
EXTT7=
EXTT8=
EXTT9=
EXTT10=
EXTT11=
EXTT12=
EXTT13=
EXTT14=
EXTT15=
EXTT16=
EXTT17=
PLAYORDER=
